<?xml version="1.0" encoding="UTF-8"?>
<svg version="1.1" xmlns="http://www.w3.org/2000/svg" width="1536" height="1024">
<path d="M0 0 C506.88 0 1013.76 0 1536 0 C1536 337.92 1536 675.84 1536 1024 C1029.12 1024 522.24 1024 0 1024 C0 686.08 0 348.16 0 0 Z " fill="#0C1217" transform="translate(0,0)"/>
<path d="M0 0 C4.68766829 3.24957845 9.55465808 6.20731994 14.40917969 9.19921875 C21.14261205 13.3752688 27.85198874 17.56315841 34.40917969 22.01171875 C40.24701845 25.97012282 46.21151094 29.69579571 52.22167969 33.38671875 C59.67256361 37.96315676 67.00300936 42.67158831 74.25292969 47.55859375 C82.45416359 53.084313 90.83007205 58.34397776 99.22167969 63.57421875 C105.92744953 67.75381949 112.61184972 71.96643174 119.28417969 76.19921875 C120.67636719 77.07936646 120.67636719 77.07936646 122.09667969 77.97729492 C126.01802742 80.46904391 129.90504968 82.97438987 133.67480469 85.69140625 C136.26189793 87.5554401 138.86185652 89.12024909 141.64746094 90.66015625 C144.37406023 92.27249557 146.97351772 94.04884677 149.59667969 95.82421875 C154.50447252 99.13110687 159.48387451 102.13554835 164.72167969 104.88671875 C164.72167969 105.54671875 164.72167969 106.20671875 164.72167969 106.88671875 C165.39070313 107.12132812 166.05972656 107.3559375 166.74902344 107.59765625 C170.50684299 109.22719692 173.8340892 111.31688097 177.28417969 113.51171875 C177.9909082 113.95757324 178.69763672 114.40342773 179.42578125 114.86279297 C185.59288537 118.76918343 191.67302572 122.79956858 197.72167969 126.88671875 C205.42471295 132.17330097 205.42471295 132.17330097 213.40917969 137.01171875 C216.81091871 138.9372314 220.01076753 141.04593079 223.24121094 143.2421875 C226.90135226 145.66883237 230.66974391 147.91889225 234.43652344 150.17578125 C236.72167969 151.88671875 236.72167969 151.88671875 237.78808594 154.03515625 C238.09617187 154.64617187 238.40425781 155.2571875 238.72167969 155.88671875 C240.04930072 156.24212173 241.38406075 156.57102197 242.72167969 156.88671875 C244.69233728 158.29315175 246.60571261 159.78158723 248.47167969 161.32421875 C249.45652344 162.12730469 250.44136719 162.93039062 251.45605469 163.7578125 C252.20371094 164.46035156 252.95136719 165.16289062 253.72167969 165.88671875 C253.72167969 166.54671875 253.72167969 167.20671875 253.72167969 167.88671875 C254.38167969 167.88671875 255.04167969 167.88671875 255.72167969 167.88671875 C258.72167969 172.27133413 258.72167969 172.27133413 258.72167969 174.88671875 C259.38167969 174.88671875 260.04167969 174.88671875 260.72167969 174.88671875 C269.41686913 188.92035008 269.41686913 188.92035008 270.37011719 196.41015625 C270.69816719 199.10737548 270.69816719 199.10737548 271.73339844 202.51953125 C272.99399825 207.46629083 273.14490246 212.29956561 273.15917969 217.38671875 C273.16304687 218.34271973 273.16691406 219.2987207 273.17089844 220.28369141 C273.02910985 229.12627774 270.99441423 236.72825906 267.72167969 244.88671875 C266.73167969 244.88671875 265.74167969 244.88671875 264.72167969 244.88671875 C264.80160156 245.57121094 264.88152344 246.25570313 264.96386719 246.9609375 C264.64199302 250.84938515 262.90928751 253.49825124 260.84667969 256.69921875 C260.481875 257.29669922 260.11707031 257.89417969 259.74121094 258.50976562 C258.79794552 260.01041515 257.76594924 261.45451774 256.72167969 262.88671875 C256.06167969 262.88671875 255.40167969 262.88671875 254.72167969 262.88671875 C254.43292969 263.50546875 254.14417969 264.12421875 253.84667969 264.76171875 C252.72167969 266.88671875 252.72167969 266.88671875 250.72167969 268.88671875 C249.73167969 268.88671875 248.74167969 268.88671875 247.72167969 268.88671875 C247.39167969 269.54671875 247.06167969 270.20671875 246.72167969 270.88671875 C242.25109145 275.71024816 242.25109145 275.71024816 238.72167969 276.88671875 C238.40779297 277.51473389 238.09390625 278.14274902 237.77050781 278.78979492 C236.5042281 281.32147008 235.36686955 282.02677246 232.94042969 283.4375 C232.17988281 283.88931641 231.41933594 284.34113281 230.63574219 284.80664062 C229.83910156 285.26619141 229.04246094 285.72574219 228.22167969 286.19921875 C222.52037711 289.53457674 217.03838775 293.01912359 211.65234375 296.84350586 C205.93248356 300.83130242 200.07624531 304.61719299 194.24505615 308.43948364 C191.77552177 310.05836571 189.30727376 311.67919257 186.83935547 313.30053711 C183.29847481 315.62675585 179.75726127 317.9524664 176.21582031 320.27783203 C167.00442823 326.3273463 157.79935067 332.38644772 148.59667969 338.44921875 C147.67737671 339.0548465 146.75807373 339.66047424 145.81091309 340.28445435 C129.43920452 351.07277589 113.11103887 361.92542036 96.80963135 372.81962585 C91.78818134 376.17541314 86.76323941 379.52593396 81.73730469 382.875 C76.61372962 386.28921718 71.49276377 389.70724716 66.37722778 393.13349915 C63.63352515 394.97097521 60.88859182 396.80660819 58.14355469 398.64208984 C56.7748428 399.55793833 55.40668155 400.47461024 54.0390625 401.39208984 C45.88771837 406.859172 37.68027397 412.20239408 29.33691406 417.37217712 C24.66903498 420.27178937 20.09519219 423.28505405 15.56005859 426.38916016 C-0.02541374 437.05030288 -15.91785832 446.11358882 -35.27832031 446.88671875 C-36.82712891 446.9640625 -36.82712891 446.9640625 -38.40722656 447.04296875 C-60.92616061 447.64682843 -81.48377268 439.63344569 -97.86816406 424.26171875 C-114.44697978 407.92473341 -123.27790721 388.91761917 -123.59082031 365.51171875 C-123.50341491 345.86298478 -115.88674828 325.84725551 -102.18212891 311.57324219 C-98.89944994 308.53619836 -95.46130124 306.00325409 -91.79394531 303.45703125 C-91.05727631 302.94157745 -90.3206073 302.42612366 -89.56161499 301.89505005 C-81.05788405 295.98130027 -72.40336053 290.29492503 -63.73950195 284.61962891 C-58.85540622 281.42018253 -53.97752562 278.21127853 -49.09863281 275.00390625 C-48.14406189 274.3767572 -47.18949097 273.74960815 -46.20599365 273.10345459 C-39.04252826 268.39537366 -31.90204566 263.65469347 -24.77832031 258.88671875 C-10.85459407 249.57340826 3.14093946 240.36915693 17.13378906 231.16015625 C27.3514645 224.43451738 37.55331843 217.68670058 47.72167969 210.88671875 C48.71167969 210.22671875 49.70167969 209.56671875 50.72167969 208.88671875 C50.00604703 206.87049545 50.00604703 206.87049545 48.72167969 204.88671875 C47.3885159 204.55270795 46.05515272 204.21949277 44.72167969 203.88671875 C43.2505379 203.00294596 41.81408246 202.05989654 40.40917969 201.07421875 C37.25173262 198.90603675 34.07758364 196.93688939 30.72558594 195.078125 C28.02619018 193.47322109 25.44784554 191.70854079 22.84667969 189.94921875 C18.51998595 187.03399348 14.16531913 184.34645968 9.56152344 181.89453125 C7.89563371 180.98200567 6.3021135 179.94034129 4.72167969 178.88671875 C4.72167969 178.22671875 4.72167969 177.56671875 4.72167969 176.88671875 C3.86509766 176.72623047 3.86509766 176.72623047 2.99121094 176.5625 C0.38304744 175.78588677 -1.36612453 174.63506215 -3.59082031 173.07421875 C-6.18592796 171.26183657 -8.76227584 169.6127239 -11.52026367 168.05126953 C-15.07614363 166.03023064 -18.50869205 163.84247188 -21.91894531 161.5859375 C-22.52663757 161.18647415 -23.13432983 160.7870108 -23.76043701 160.3754425 C-25.68436901 159.11033622 -27.60645227 157.84245777 -29.52832031 156.57421875 C-40.14342936 149.58005037 -50.77609836 142.63623783 -61.61816406 135.99609375 C-105.17319713 109.246468 -105.17319713 109.246468 -109.27832031 96.88671875 C-109.93832031 96.88671875 -110.59832031 96.88671875 -111.27832031 96.88671875 C-122.04749709 76.10462761 -126.10972478 54.62265405 -118.97167969 31.84130859 C-111.79943804 11.62265838 -95.58563091 -3.18905474 -76.77832031 -12.42578125 C-50.3945096 -23.97062258 -22.42684159 -15.93597174 0 0 Z " fill="#01372D" transform="translate(931.2783203125,303.11328125)"/>
<path d="M0 0 C15.54851378 12.05009818 26.38665005 27.78607503 30.25 47.25 C30.64959502 51.75971522 30.6708084 56.22514837 30.625 60.75 C30.63660156 61.89597656 30.64820313 63.04195313 30.66015625 64.22265625 C30.59948002 82.00079124 23.69315685 97.7840629 12.25 111.25 C11.28707031 112.40048828 11.28707031 112.40048828 10.3046875 113.57421875 C3.82168182 120.6546779 -4.31011002 125.52683568 -12.32421875 130.6796875 C-16.31025016 133.26001701 -20.24504454 135.91629692 -24.1875 138.5625 C-29.6790448 142.23148778 -35.20430078 145.8318177 -40.79296875 149.3515625 C-44.75023945 151.89216166 -48.6547745 154.50904103 -52.5625 157.125 C-57.74068832 160.59127216 -62.93064421 164.0285304 -68.1875 167.375 C-76.50688026 172.68690477 -84.69571023 178.1961757 -92.89428711 183.69189453 C-99.01807661 187.79222279 -105.17776348 191.82361632 -111.40698242 195.76220703 C-114.15497431 197.50715468 -116.86406913 199.30446943 -119.5625 201.125 C-123.8649002 204.00805168 -128.19866124 206.83612643 -132.5625 209.625 C-140.0271657 214.39721554 -147.39276816 219.31426603 -154.75 224.25 C-150.40587878 227.89906182 -145.7615011 230.9361103 -141 234 C-140.13528076 234.55929199 -139.27056152 235.11858398 -138.37963867 235.69482422 C-130.21029574 240.97138539 -122.0161046 246.20940935 -113.82128906 251.44628906 C-107.28889051 255.62116044 -100.77053891 259.81646471 -94.26733398 264.03662109 C-88.07125802 268.05269235 -81.84788975 272.02564585 -75.625 276 C-66.3078094 281.95105741 -57.03617523 287.96790029 -47.78710938 294.02416992 C-42.43846953 297.5192518 -37.06068478 300.95465294 -31.625 304.3125 C-25.26670344 308.25342768 -18.99291384 312.31630753 -12.75 316.4375 C-11.87714355 317.00799072 -11.00428711 317.57848145 -10.10498047 318.16625977 C6.06836627 328.91173567 16.70811126 342.57642858 22.125 361.26953125 C22.73230868 364.28498754 23.04698953 367.17946667 23.25 370.25 C23.29769531 370.94464355 23.34539062 371.63928711 23.39453125 372.35498047 C24.52908557 391.41954496 19.43485706 409.26616666 7.0859375 424.23046875 C-5.65593748 438.24653123 -24.16547939 447.55737978 -43.15234375 448.53515625 C-64.4077435 449.16024917 -79.56790096 440.79780319 -96.75317383 429.25952148 C-101.32726868 426.18926952 -105.93172799 423.17150164 -110.5625 420.1875 C-118.55329026 415.03600053 -126.51126005 409.83493946 -134.465271 404.62689209 C-141.02467499 400.33238706 -147.59310928 396.05311613 -154.1875 391.8125 C-159.21179475 388.58119877 -164.19531141 385.29255171 -169.15625 381.96484375 C-169.72586456 381.58285324 -170.29547913 381.20086273 -170.88235474 380.80729675 C-171.46016693 380.41979752 -172.03797913 380.03229828 -172.63330078 379.63305664 C-182.12994304 373.2648566 -191.63924131 366.97702528 -201.44799805 361.09423828 C-208.28447192 356.97790791 -214.89213974 352.5437133 -221.51171875 348.08984375 C-225.24982737 345.57621555 -229.01787347 343.11479209 -232.8125 340.6875 C-233.37146973 340.32994629 -233.93043945 339.97239258 -234.50634766 339.60400391 C-235.65371665 338.87046163 -236.80117893 338.13706526 -237.94873047 337.40380859 C-241.26441612 335.27993622 -244.56951292 333.13969729 -247.875 331 C-248.58019775 330.54359131 -249.28539551 330.08718262 -250.01196289 329.61694336 C-256.4468876 325.45003639 -262.87379197 321.27081529 -269.30053711 317.09130859 C-276.75079924 312.24709341 -284.21052065 307.4176138 -291.67333984 302.59277344 C-293.77857969 301.2315203 -295.88349252 299.86976305 -297.98828125 298.5078125 C-298.69162598 298.05293457 -299.3949707 297.59805664 -300.11962891 297.12939453 C-301.53561322 296.21255848 -302.9506595 295.29427203 -304.36474609 294.37451172 C-307.9472245 292.0470996 -311.54371589 289.74937235 -315.17578125 287.5 C-335.57664086 274.78560244 -349.0174977 259.92662121 -355.5625 236.25 C-359.8848742 215.53241332 -355.71731263 195.48539599 -344.17578125 177.84375 C-342.76355708 175.91630494 -341.28213498 174.08271732 -339.75 172.25 C-339.34910156 171.69441406 -338.94820313 171.13882813 -338.53515625 170.56640625 C-332.29509664 162.353805 -322.43946244 156.8716505 -313.7578125 151.5703125 C-306.1230703 146.90101824 -298.65621904 141.99152289 -291.1875 137.0625 C-288.35472044 135.19707483 -285.52108905 133.33294525 -282.6875 131.46875 C-281.99792709 131.01482376 -281.30835419 130.56089752 -280.59788513 130.09321594 C-274.97567871 126.39373154 -269.33610609 122.72155025 -263.6875 119.0625 C-258.37278972 115.61690535 -253.07453239 112.15053169 -247.8125 108.625 C-240.55390003 103.76210565 -233.24678094 98.97368498 -225.9375 94.1875 C-224.99955597 93.57323654 -224.99955597 93.57323654 -224.04266357 92.94656372 C-217.34451848 88.56045182 -210.6432742 84.17912675 -203.9375 79.8046875 C-193.50963425 73.00025434 -183.10120416 66.17063104 -172.75 59.25 C-161.8935105 51.99158506 -150.97129154 44.83735736 -140.03393555 37.7015686 C-133.61378042 33.51124241 -127.20576137 29.30245315 -120.79742432 25.09408569 C-118.75978687 23.75642485 -116.7215474 22.41968648 -114.68310547 21.08325195 C-108.81819274 17.23755337 -102.95490119 13.38972883 -97.10797119 9.51672363 C-94.75213735 7.95702424 -92.39359898 6.40144556 -90.03466797 4.84643555 C-88.43587816 3.79021827 -86.84090642 2.72822856 -85.24609375 1.66601562 C-58.6650623 -15.83813784 -27.31816937 -19.01897867 0 0 Z " fill="#1D587E" transform="translate(642.75,298.75)"/>
<path d="M0 0 C4.54649337 1.04125682 8.03110545 3.10290573 11.88671875 5.66796875 C12.42923782 6.0258699 12.9717569 6.38377106 13.53071594 6.7525177 C15.25394484 7.89117485 16.97085207 9.03895139 18.6875 10.1875 C20.38110693 11.31179874 22.07598758 12.43415836 23.77095032 13.55641174 C25.44014772 14.66196079 27.10813901 15.76933014 28.77612305 16.87670898 C33.48114803 19.97550507 38.23883208 22.98853309 43 26 C45.1053998 27.35224865 47.20973996 28.70615015 49.3125 30.0625 C55.46345566 34.02478824 61.63688983 37.95127856 67.8125 41.875 C74.45622722 46.09661732 81.08560146 50.33827705 87.6875 54.625 C89.73588248 55.9508139 91.78493768 57.2755778 93.83447266 58.59960938 C95.35607758 59.58359199 96.87648012 60.56943522 98.39599609 61.55664062 C111.62382679 70.36781398 111.62382679 70.36781398 126 77 C126.86625 77.31453125 127.7325 77.6290625 128.625 77.953125 C144.53431949 82.81430595 164.04561368 81.31480085 178.875 73.6875 C179.90625 73.130625 180.9375 72.57375 182 72 C182.66 72.33 183.32 72.66 184 73 C183.01717041 73.63091553 182.03434082 74.26183105 181.02172852 74.91186523 C172.87363774 80.1560737 164.7693063 85.46064831 156.71484375 90.84765625 C155.3956041 91.72990372 155.3956041 91.72990372 154.04971313 92.62997437 C150.43772653 95.04709561 146.82689257 97.46592602 143.2175293 99.88696289 C125.80707349 111.56029181 125.80707349 111.56029181 116.99609375 116.9921875 C108.12579401 122.46559281 99.5205848 128.32210774 90.89987183 134.17800903 C86.16065897 137.39653745 81.41474763 140.60514411 76.66796875 143.8125 C75.7392244 144.44007706 74.81048004 145.06765411 73.85359192 145.71424866 C63.49932022 152.70160676 53.04222103 159.5237624 42.56640625 166.32714844 C38.84022956 168.75596909 35.13570094 171.21635191 31.4375 173.6875 C30.76404541 174.13730225 30.09059082 174.58710449 29.39672852 175.05053711 C26.33763601 177.09554303 23.2798803 179.1425413 20.22283936 181.19061279 C16.00344044 184.01738066 11.78239904 186.84167407 7.55984497 189.66372681 C6.13252897 190.61834768 4.70580565 191.57385546 3.27975464 192.53036499 C-4.85901806 197.98912253 -13.05421991 203.32361537 -21.38476562 208.48545837 C-26.0526447 211.38507062 -30.6264875 214.3983353 -35.16162109 217.50244141 C-50.74709343 228.16358413 -66.639538 237.22687007 -86 238 C-87.03253906 238.0515625 -88.06507813 238.103125 -89.12890625 238.15625 C-111.6478403 238.76010968 -132.20545237 230.74672694 -148.58984375 215.375 C-165.16865947 199.03801466 -173.99958689 180.03090042 -174.3125 156.625 C-174.2250946 136.97626603 -166.60842797 116.96053676 -152.90380859 102.68652344 C-149.62112963 99.64947961 -146.18298093 97.11653534 -142.515625 94.5703125 C-141.77895599 94.0548587 -141.04228699 93.53940491 -140.28329468 93.0083313 C-131.77956374 87.09458152 -123.12504022 81.40820628 -114.46118164 75.73291016 C-109.57708591 72.53346378 -104.69920531 69.32455978 -99.8203125 66.1171875 C-98.86574158 65.49003845 -97.91117065 64.8628894 -96.92767334 64.21673584 C-89.76420795 59.50865491 -82.62372535 54.76797472 -75.5 50 C-61.57627376 40.68668951 -47.58074023 31.48243818 -33.58789062 22.2734375 C-23.37021518 15.54779863 -13.16836126 8.79998183 -3 2 C-2.01 1.34 -1.02 0.68 0 0 Z " fill="#D7840B" transform="translate(982,512)"/>
<path d="M0 0 C15.54851378 12.05009818 26.38665005 27.78607503 30.25 47.25 C30.64959502 51.75971522 30.6708084 56.22514837 30.625 60.75 C30.63660156 61.89597656 30.64820313 63.04195313 30.66015625 64.22265625 C30.59948002 82.00079124 23.69315685 97.7840629 12.25 111.25 C11.28707031 112.40048828 11.28707031 112.40048828 10.3046875 113.57421875 C3.82168182 120.6546779 -4.31011002 125.52683568 -12.32421875 130.6796875 C-16.31025016 133.26001701 -20.24504454 135.91629692 -24.1875 138.5625 C-29.6790448 142.23148778 -35.20430078 145.8318177 -40.79296875 149.3515625 C-44.75023945 151.89216166 -48.6547745 154.50904103 -52.5625 157.125 C-57.74068832 160.59127216 -62.93064421 164.0285304 -68.1875 167.375 C-76.50688026 172.68690477 -84.69571023 178.1961757 -92.89428711 183.69189453 C-99.01807661 187.79222279 -105.17776348 191.82361632 -111.40698242 195.76220703 C-114.15497431 197.50715468 -116.86406913 199.30446943 -119.5625 201.125 C-124.43653733 204.39110749 -129.35474474 207.58202431 -134.30322266 210.73364258 C-137.52319528 212.79205835 -140.7096275 214.88981778 -143.8671875 217.04296875 C-144.54676514 217.50461426 -145.22634277 217.96625977 -145.92651367 218.44189453 C-147.2432215 219.33930837 -148.55606204 220.24242922 -149.86450195 221.15185547 C-154.41802238 224.25 -154.41802238 224.25 -157.75 224.25 C-159.9414503 222.97411519 -162.02479389 221.66242934 -164.125 220.25 C-165.38595221 219.41940803 -166.64768927 218.59000652 -167.91015625 217.76171875 C-168.54969238 217.34067871 -169.18922852 216.91963867 -169.84814453 216.48583984 C-172.71896637 214.62035844 -175.63826571 212.84321747 -178.5625 211.0625 C-182.81079295 208.46150432 -186.98960602 205.79507232 -191.1171875 203.0078125 C-200.25531155 196.9066911 -209.53371652 191.0091066 -218.8125 185.125 C-222.63641249 182.68420479 -226.44295443 180.21699206 -230.25 177.75 C-239.96920831 171.45182179 -239.96920831 171.45182179 -249.75 165.25 C-250.30864746 164.89164063 -250.86729492 164.53328125 -251.44287109 164.1640625 C-262.10916474 157.33763456 -274.18882233 150.13639635 -287.234375 150.1171875 C-288.08773438 150.11589844 -288.94109375 150.11460937 -289.8203125 150.11328125 C-291.14675781 150.11908203 -291.14675781 150.11908203 -292.5 150.125 C-293.36882812 150.12113281 -294.23765625 150.11726562 -295.1328125 150.11328125 C-300.42896248 150.12123343 -305.50943517 150.48219632 -310.75 151.25 C-306.99316636 147.18369539 -303.11171046 144.39382899 -298.375 141.5625 C-296.93374467 140.6815681 -295.49366565 139.79870921 -294.0546875 138.9140625 C-293.33120117 138.4696582 -292.60771484 138.02525391 -291.86230469 137.56738281 C-288.69521562 135.59216175 -285.59514306 133.52306305 -282.5 131.4375 C-276.62062218 127.48298415 -270.69684716 123.60231078 -264.75 119.75 C-259.08111342 116.07530045 -253.42365397 112.38731187 -247.8125 108.625 C-240.55408654 103.76183228 -233.24677742 98.97368267 -225.9375 94.1875 C-225.31220398 93.77799103 -224.68690796 93.36848206 -224.04266357 92.94656372 C-217.34451848 88.56045182 -210.6432742 84.17912675 -203.9375 79.8046875 C-193.50963425 73.00025434 -183.10120416 66.17063104 -172.75 59.25 C-161.8935105 51.99158506 -150.97129154 44.83735736 -140.03393555 37.7015686 C-133.61378042 33.51124241 -127.20576137 29.30245315 -120.79742432 25.09408569 C-118.75978687 23.75642485 -116.7215474 22.41968648 -114.68310547 21.08325195 C-108.81819274 17.23755337 -102.95490119 13.38972883 -97.10797119 9.51672363 C-94.75213735 7.95702424 -92.39359898 6.40144556 -90.03466797 4.84643555 C-88.43587816 3.79021827 -86.84090642 2.72822856 -85.24609375 1.66601562 C-58.6650623 -15.83813784 -27.31816937 -19.01897867 0 0 Z " fill="#4E3579" transform="translate(642.75,298.75)"/>
<path d="M0 0 C0.94359375 0.47050781 1.8871875 0.94101562 2.859375 1.42578125 C21.32580908 10.46893469 39.63097992 13.05704612 59.6171875 7.16015625 C63.65998613 5.77365372 67.246605 4.0268333 71 2 C71.99 2.495 71.99 2.495 73 3 C71.42025391 4.01707031 71.42025391 4.01707031 69.80859375 5.0546875 C60.14766194 11.28467629 50.54551813 17.59463776 41 24 C41 23.01 41 22.02 41 21 C41.66 21 42.32 21 43 21 C43.495 19.515 43.495 19.515 44 18 C44.66 18 45.32 18 46 18 C46.33 16.35 46.66 14.7 47 13 C46.01 13.33 45.02 13.66 44 14 C36.32799618 13.87910782 28.77856344 13.15481188 21.2890625 11.4765625 C16.94034928 10.571199 12.44665853 10 8 10 C7.67 8.35 7.34 6.7 7 5 C5.68 5 4.36 5 3 5 C3 4.34 3 3.68 3 3 C2.01 2.67 1.02 2.34 0 2 C0 1.34 0 0.68 0 0 Z " fill="#94611F" transform="translate(1093,582)"/>
<path d="M0 0 C2.59295592 3.88943388 1.70986703 5.50417546 1 10 C1.34659295 12.32158065 1.34659295 12.32158065 2 14 C1.01 14.33 0.02 14.66 -1 15 C-1.59284163 26.79096124 0.68462714 37.74214694 4 49 C4.99 49 5.98 49 7 49 C7 51.64 7 54.28 7 57 C7.66 57 8.32 57 9 57 C9 57.99 9 58.98 9 60 C9.99 60.33 10.98 60.66 12 61 C12.66 61.66 13.32 62.32 14 63 C14.66 63 15.32 63 16 63 C16 63.99 16 64.98 16 66 C17.485 66.495 17.485 66.495 19 67 C18.34 67 17.68 67 17 67 C16.67651128 70.0695597 16.67651128 70.0695597 18.75 72.0625 C20.78994616 73.81912031 22.54150783 74.9463605 25 76 C24.67 76.66 24.34 77.32 24 78 C13.41831583 73.51946706 6.38067223 60.28437076 2.18603516 50.00537109 C-3.68939975 34.35641247 -6.1628277 15.99400521 0 0 Z " fill="#355794" transform="translate(289,497)"/>
<path d="M0 0 C-0.556875 0.2475 -1.11375 0.495 -1.6875 0.75 C-4.12011609 1.96386646 -4.12011609 1.96386646 -6.375 4 C-9 6 -9 6 -12.25 7.0625 C-13.1575 7.371875 -14.065 7.68125 -15 8 C-15.33 8.99 -15.66 9.98 -16 11 C-16.99 11 -17.98 11 -19 11 C-19 10.34 -19 9.68 -19 9 C-22.37088267 11.27415287 -22.37088267 11.27415287 -24 15 C-24.99 15.33 -25.98 15.66 -27 16 C-29.64296752 18.33203016 -30.87224426 19.61673278 -32 23 C-32.99 23.33 -33.98 23.66 -35 24 C-36.70586575 25.62652316 -38.3777546 27.29006566 -40 29 C-40.33 28.34 -40.66 27.68 -41 27 C-31.50731054 14.09779159 -17.06389419 -0.38781578 0 0 Z " fill="#3C599A" transform="translate(340,449)"/>
<path d="M0 0 C-0.66 1.32 -1.32 2.64 -2 4 C-2.66 4 -3.32 4 -4 4 C-4 3.34 -4 2.68 -4 2 C-6.43929746 3.92576115 -8.80090595 5.80090595 -11 8 C-13.9160647 9.036823 -16.85761962 9.95570388 -19.8125 10.875 C-20.8953125 11.431875 -20.8953125 11.431875 -22 12 C-22.165 12.66 -22.33 13.32 -22.5 14 C-22.665 14.66 -22.83 15.32 -23 16 C-25.5214013 17.26070065 -28.0662452 18.02107802 -30.75 18.875 C-33.18940766 19.77795791 -33.18940766 19.77795791 -33.8125 22.125 C-33.874375 22.74375 -33.93625 23.3625 -34 24 C-34.7425 24.12375 -35.485 24.2475 -36.25 24.375 C-38.81075381 24.9569895 -40.68814698 25.80421396 -43 27 C-43.66 27 -44.32 27 -45 27 C-45 26.34 -45 25.68 -45 25 C-43.49389648 23.83007812 -43.49389648 23.83007812 -41.37109375 22.53125 C-40.59016357 22.04712646 -39.8092334 21.56300293 -39.00463867 21.06420898 C-38.15748291 20.54802002 -37.31032715 20.03183105 -36.4375 19.5 C-34.69166593 18.41965145 -32.94688723 17.33759572 -31.203125 16.25390625 C-30.32720703 15.71008301 -29.45128906 15.16625977 -28.54882812 14.60595703 C-24.26529034 11.90699998 -20.07382765 9.073318 -15.89819336 6.2109375 C-5.96501371 -0.52632474 -5.96501371 -0.52632474 0 0 Z " fill="#624487" transform="translate(577,292)"/>
<path d="M0 0 C0.99 0.66 1.98 1.32 3 2 C-14.49248357 11.57234858 -32.97426272 15.43869505 -52.625 10.125 C-58.63496933 8.36503067 -58.63496933 8.36503067 -61 6 C-57.5184446 5.90052699 -54.3677519 6.06451336 -51 7 C-50.67 7.66 -50.34 8.32 -50 9 C-45.94323508 9.04954711 -41.88658806 9.085789 -37.82958984 9.10986328 C-36.45032685 9.11990253 -35.07108504 9.13353677 -33.69189453 9.15087891 C-31.7061486 9.17521754 -29.7202455 9.18543255 -27.734375 9.1953125 C-26.54038086 9.20578613 -25.34638672 9.21625977 -24.11621094 9.22705078 C-21.09207828 9.00670893 -19.58339658 8.4588849 -17 7 C-16.175 7.04125 -15.35 7.0825 -14.5 7.125 C-11.8433689 7.28257809 -11.8433689 7.28257809 -10.1875 5.0625 C-6.98316428 2.04126918 -4.33286198 2.28885747 0 2 C0 1.34 0 0.68 0 0 Z " fill="#1C1E0B" transform="translate(1164,581)"/>
<path d="M0 0 C7.489641 6.46682659 11.61833667 19.04749946 12.78515625 28.68359375 C13.61956695 41.5638607 13.47171569 52.76267091 9 65 C8.34 64.67 7.68 64.34 7 64 C7.48235075 61.26667907 8.08647883 58.75137335 9 56.125 C12.84976283 44.09449114 11.04947185 31.2053368 9 19 C8.34 19 7.68 19 7 19 C7 17.35 7 15.7 7 14 C6.34 14 5.68 14 5 14 C4.81824219 13.43410156 4.63648438 12.86820313 4.44921875 12.28515625 C4.07216797 11.18494141 4.07216797 11.18494141 3.6875 10.0625 C3.44386719 9.33160156 3.20023438 8.60070312 2.94921875 7.84765625 C2.08759559 5.64067976 2.08759559 5.64067976 -1 5 C-0.67 3.35 -0.34 1.7 0 0 Z " fill="#18575D" transform="translate(653,637)"/>
<path d="M0 0 C2.31 0.66 4.62 1.32 7 2 C7 1.34 7 0.68 7 0 C9.04972452 1.02486226 11.07571345 2.04359259 13.0625 3.1875 C15.15384706 4.31455354 15.15384706 4.31455354 18 3 C18.66 3.33 19.32 3.66 20 4 C29.03427106 4.40792193 38.21396538 4.32341805 47 2 C47.495 2.99 47.495 2.99 48 4 C33.70262321 8.24374435 19.25747131 8.6839449 5 4 C3.14375 3.4121875 3.14375 3.4121875 1.25 2.8125 C0.5075 2.544375 -0.235 2.27625 -1 2 C-0.67 1.34 -0.34 0.68 0 0 Z " fill="#185158" transform="translate(569,740)"/>
<path d="M0 0 C0.66 0.33 1.32 0.66 2 1 C1.21654285 2.17219543 0.42297164 3.33763668 -0.375 4.5 C-0.81585937 5.1496875 -1.25671875 5.799375 -1.7109375 6.46875 C-2.13632812 6.9740625 -2.56171875 7.479375 -3 8 C-3.66 8 -4.32 8 -5 8 C-5.33 8.66 -5.66 9.32 -6 10 C-6.598125 10.103125 -7.19625 10.20625 -7.8125 10.3125 C-10.26604996 10.83941171 -10.26604996 10.83941171 -11.75 13.5 C-14.18802775 16.20891972 -14.64976861 16.3944872 -18.0625 16.8125 C-20.37322605 16.92253457 -22.68665556 17 -25 17 C-16.78100148 11.15967635 -8.40377479 5.56890143 0 0 Z " fill="#DD921D" transform="translate(911,559)"/>
<path d="M0 0 C10.37557101 5.77776895 20.17498168 12.34333679 30 19 C29.67 19.99 29.34 20.98 29 22 C28.34 21.67 27.68 21.34 27 21 C27 20.34 27 19.68 27 19 C25.68 18.67 24.36 18.34 23 18 C23 17.34 23 16.68 23 16 C22.01 16 21.02 16 20 16 C20 15.34 20 14.68 20 14 C18.63875 13.87625 18.63875 13.87625 17.25 13.75 C13.49494392 12.8834486 12.65200728 11.65200728 10 9 C6.85518209 8.19684346 6.85518209 8.19684346 4 8 C4 7.01 4 6.02 4 5 C2.35 5 0.7 5 -1 5 C-0.67 3.35 -0.34 1.7 0 0 Z " fill="#B1670C" transform="translate(1057,559)"/>
<path d="M0 0 C0.33 0.66 0.66 1.32 1 2 C0.01 3.485 0.01 3.485 -1 5 C0.27617187 5.12117188 1.55234375 5.24234375 2.8671875 5.3671875 C4.53650526 5.53599491 6.20577365 5.7052911 7.875 5.875 C8.71675781 5.95363281 9.55851562 6.03226562 10.42578125 6.11328125 C11.23144531 6.19707031 12.03710938 6.28085937 12.8671875 6.3671875 C13.61081543 6.44050293 14.35444336 6.51381836 15.12060547 6.58935547 C17 7 17 7 19 9 C18.31486328 8.99476318 17.62972656 8.98952637 16.92382812 8.98413086 C13.78256163 8.96318555 10.64130989 8.9502844 7.5 8.9375 C5.88351562 8.92493164 5.88351562 8.92493164 4.234375 8.91210938 C-1.61328382 8.89428115 -7.21863671 9.10894037 -13 10 C-9.11973109 5.75595588 -4.95745654 2.89082453 0 0 Z " fill="#283074" transform="translate(345,440)"/>
<path d="M0 0 C0.73806885 -0.00531738 1.4761377 -0.01063477 2.23657227 -0.01611328 C5.99298792 0.03341041 7.74037311 0.18108207 10.9375 2.3125 C10.37240723 2.32708252 9.80731445 2.34166504 9.22509766 2.35668945 C6.67019981 2.43106058 4.11662502 2.52775242 1.5625 2.625 C0.67304687 2.64755859 -0.21640625 2.67011719 -1.1328125 2.69335938 C-1.98359375 2.72880859 -2.834375 2.76425781 -3.7109375 2.80078125 C-4.88922119 2.84005737 -4.88922119 2.84005737 -6.09130859 2.88012695 C-8.46290156 3.16139597 -8.46290156 3.16139597 -10.0625 6.3125 C-13.08103795 6.3125 -15.83331079 6.16299285 -18.8125 5.8125 C-19.61171875 5.7196875 -20.4109375 5.626875 -21.234375 5.53125 C-21.83765625 5.4590625 -22.4409375 5.386875 -23.0625 5.3125 C-17.50123486 -0.24876514 -7.45736572 0.02703961 0 0 Z " fill="#5E4181" transform="translate(601.0625,285.6875)"/>
<path d="M0 0 C0.66 0.33 1.32 0.66 2 1 C-0.46153846 4.81538462 -0.46153846 4.81538462 -3.1875 5.75 C-3.785625 5.8325 -4.38375 5.915 -5 6 C-5 6.99 -5 7.98 -5 9 C-6.33333333 9.66666667 -7.66666667 10.33333333 -9 11 C-9 10.34 -9 9.68 -9 9 C-10.65 10.65 -12.3 12.3 -14 14 C-13.34 14.33 -12.68 14.66 -12 15 C-12 15.66 -12 16.32 -12 17 C-15.04386724 17.08226668 -17.07175348 16.97608217 -20 16 C-20.99 16.99 -21.98 17.98 -23 19 C-23.66 18.34 -24.32 17.68 -25 17 C-16.75 11.39 -8.5 5.78 0 0 Z " fill="#D99932" transform="translate(938,541)"/>
<path d="M0 0 C0.66 0.33 1.32 0.66 2 1 C0.69791667 2.49739583 -0.60416667 3.99479167 -1.90625 5.4921875 C-3.19572458 6.95936421 -3.19572458 6.95936421 -3 9 C-7.75 11 -7.75 11 -10 11 C-10.391875 11.886875 -10.78375 12.77375 -11.1875 13.6875 C-13.0867841 17.15860542 -15.18336361 19.25206206 -18 22 C-19.43597748 23.95015006 -20.71069976 25.94666998 -22 28 C-22.33 27.34 -22.66 26.68 -23 26 C-17.66032856 15.41116002 -9.76610731 6.62329086 0 0 Z " fill="#DCA541" transform="translate(840,606)"/>
<path d="M0 0 C0.66 0.33 1.32 0.66 2 1 C-2.56894269 6.96500851 -2.56894269 6.96500851 -7 8 C-8.69985576 8.96455631 -10.36375514 9.99358409 -12 11.0625 C-12.95777344 11.68382812 -13.91554688 12.30515625 -14.90234375 12.9453125 C-17.04750815 14.36820843 -19.18552432 15.7983044 -21.31640625 17.2421875 C-22.38761719 17.96664062 -23.45882813 18.69109375 -24.5625 19.4375 C-26.04943359 20.45650391 -26.04943359 20.45650391 -27.56640625 21.49609375 C-30 23 -30 23 -32 23 C-32.33 23.99 -32.66 24.98 -33 26 C-34.32 25.67 -35.64 25.34 -37 25 C-24.79 16.75 -12.58 8.5 0 0 Z " fill="#200C04" transform="translate(1061,653)"/>
<path d="M0 0 C0.99 0.33 1.98 0.66 3 1 C1.78303831 4.65088507 0.74307661 5.10078998 -2.4375 7.13671875 C-3.77941406 8.00200195 -3.77941406 8.00200195 -5.1484375 8.88476562 C-6.08945313 9.47966797 -7.03046875 10.07457031 -8 10.6875 C-8.94101563 11.29400391 -9.88203125 11.90050781 -10.8515625 12.52539062 C-17.83779176 17 -17.83779176 17 -19 17 C-19 15.35 -19 13.7 -19 12 C-18.13955078 11.82791016 -18.13955078 11.82791016 -17.26171875 11.65234375 C-14.79321615 10.94035768 -12.98023902 9.93309672 -10.8125 8.5625 C-10.11769531 8.13066406 -9.42289063 7.69882812 -8.70703125 7.25390625 C-6.8575174 6.09511727 -6.8575174 6.09511727 -6 4 C-4.35178756 2.96986723 -2.68496298 1.96885372 -1 1 C-0.67 0.67 -0.34 0.34 0 0 Z " fill="#B8731D" transform="translate(1111,616)"/>
<path d="M0 0 C0.33 0.66 0.66 1.32 1 2 C0.43410156 2.32613281 -0.13179687 2.65226563 -0.71484375 2.98828125 C-1.44832031 3.42527344 -2.18179688 3.86226562 -2.9375 4.3125 C-3.66839844 4.74175781 -4.39929688 5.17101562 -5.15234375 5.61328125 C-7.29977412 6.95110254 -7.29977412 6.95110254 -8 10 C-11.69422377 13.52630451 -13.87974549 15.26853507 -19 16 C-19.33 16.66 -19.66 17.32 -20 18 C-21.32 17.34 -22.64 16.68 -24 16 C-16.08 10.72 -8.16 5.44 0 0 Z " fill="#DC9C33" transform="translate(884,577)"/>
<path d="M0 0 C1 2 1 2 0.22265625 4.8203125 C-0.16019531 5.91085937 -0.54304687 7.00140625 -0.9375 8.125 C-1.31777344 9.22070312 -1.69804688 10.31640625 -2.08984375 11.4453125 C-2.54037109 12.70988281 -2.54037109 12.70988281 -3 14 C-2.34 14 -1.68 14 -1 14 C-0.67 15.65 -0.34 17.3 0 19 C-1.98 19.99 -1.98 19.99 -4 21 C-4 23.31 -4 25.62 -4 28 C-4.99 28.33 -5.98 28.66 -7 29 C-7.97505056 18.9244775 -4.55430007 10.2845013 -1 1 C-0.67 0.67 -0.34 0.34 0 0 Z " fill="#DCA13F" transform="translate(816,634)"/>
<path d="M0 0 C0.66 0.33 1.32 0.66 2 1 C1.27466064 1.46841309 1.27466064 1.46841309 0.53466797 1.94628906 C-1.68551217 3.38040973 -3.90525874 4.81520014 -6.125 6.25 C-6.88554688 6.74113281 -7.64609375 7.23226562 -8.4296875 7.73828125 C-12.64118769 10.46123396 -16.83538015 13.20584611 -21 16 C-21.66 15.67 -22.32 15.34 -23 15 C-22.67 14.34 -22.34 13.68 -22 13 C-19.4375 12.375 -19.4375 12.375 -17 12 C-17 11.01 -17 10.02 -17 9 C-18.65 9 -20.3 9 -22 9 C-18.80431048 7.2798322 -15.58121755 6.15740861 -12.125 5.0625 C-8.73518808 3.96287808 -5.51353397 2.88106536 -2.375 1.1875 C-1.59125 0.795625 -0.8075 0.40375 0 0 Z " fill="#865C24" transform="translate(1164,584)"/>
<path d="M0 0 C10.25523149 4.92043935 20.03182009 12.195133 26 22 C25.01 22 24.02 22 23 22 C22.401875 21.0925 21.80375 20.185 21.1875 19.25 C18.82393055 15.7384111 16.52609827 14.24388072 13 12 C13 11.34 13 10.68 13 10 C12.34 10 11.68 10 11 10 C11 9.34 11 8.68 11 8 C10.37351562 7.92523437 9.74703125 7.85046875 9.1015625 7.7734375 C6.59401809 7.37001553 4.36502817 6.93390509 2 6 C0.4375 2.875 0.4375 2.875 0 0 Z " fill="#1B5A64" transform="translate(627,614)"/>
<path d="M0 0 C1.32 0.33 2.64 0.66 4 1 C-2.93046767 7.32781831 -13.12596629 16 -23 16 C-22.67 15.01 -22.34 14.02 -22 13 C-21.21625 12.855625 -20.4325 12.71125 -19.625 12.5625 C-17.03578982 12.12201075 -17.03578982 12.12201075 -15 11 C-15.33 10.34 -15.66 9.68 -16 9 C-15.13375 9.0825 -14.2675 9.165 -13.375 9.25 C-7.98567459 8.85079071 -5.08053771 6.25114892 -1.625 2.25 C-1.08875 1.5075 -0.5525 0.765 0 0 Z " fill="#185359" transform="translate(640,727)"/>
<path d="M0 0 C1.0828125 0.9590625 1.0828125 0.9590625 2.1875 1.9375 C4.98191184 3.98673535 6.61663274 4.61332946 10 5 C10 5.99 10 6.98 10 8 C10.99 8 11.98 8 13 8 C13 8.66 13 9.32 13 10 C14.11375 10.309375 15.2275 10.61875 16.375 10.9375 C20 12 20 12 22 13 C22 13.99 22 14.98 22 16 C23.32 16.66 24.64 17.32 26 18 C20.61203447 18 16.31553967 14.07937041 11.875 11.25 C10.84761719 10.61578125 9.82023437 9.9815625 8.76171875 9.328125 C7.78589844 8.709375 6.81007813 8.090625 5.8046875 7.453125 C4.90733887 6.88754883 4.00999023 6.32197266 3.08544922 5.73925781 C0.80552856 3.83781146 0.32464071 2.90033532 0 0 Z " fill="#345485" transform="translate(317,576)"/>
<path d="M0 0 C0.66 0.33 1.32 0.66 2 1 C-2.60082988 7.006639 -2.60082988 7.006639 -7 8 C-7.639375 8.845625 -8.27875 9.69125 -8.9375 10.5625 C-11 13 -11 13 -13.75 13.3125 C-14.86375 13.1578125 -14.86375 13.1578125 -16 13 C-14.89039427 9.67118282 -14.42884616 9.33631222 -11.62109375 7.51953125 C-10.94755859 7.07802734 -10.27402344 6.63652344 -9.58007812 6.18164062 C-8.87302734 5.72982422 -8.16597656 5.27800781 -7.4375 4.8125 C-6.72658203 4.34908203 -6.01566406 3.88566406 -5.28320312 3.40820312 C-3.52687504 2.26482175 -1.7640395 1.13144772 0 0 Z " fill="#5C4585" transform="translate(529,319)"/>
<path d="M0 0 C0.66 1.32 1.32 2.64 2 4 C1.54625 4.556875 1.0925 5.11375 0.625 5.6875 C-1.11050352 7.94954292 -1.11050352 7.94954292 -2 10.6875 C-2.33 11.450625 -2.66 12.21375 -3 13 C-3.99 13.33 -4.98 13.66 -6 14 C-6 15.32 -6 16.64 -6 18 C-6.66 18 -7.32 18 -8 18 C-7.45960463 13.44041411 -6.26620958 10.16970963 -4 6.1875 C-3.46375 5.23230469 -2.9275 4.27710938 -2.375 3.29296875 C-1 1 -1 1 0 0 Z " fill="#39599C" transform="translate(298,478)"/>
<path d="M0 0 C2.3754901 1.10312199 4.75039953 2.20746589 7.125 3.3125 C8.12273437 3.7755957 8.12273437 3.7755957 9.140625 4.24804688 C13.12620443 6.10407651 17.07688936 8.01400162 21 10 C18.50157063 11.24921469 17.24449196 10.92338287 14.5 10.5625 C11.25897568 10.14050645 11.25897568 10.14050645 8 10 C7.67 8.35 7.34 6.7 7 5 C5.68 5 4.36 5 3 5 C3 4.34 3 3.68 3 3 C2.01 2.67 1.02 2.34 0 2 C0 1.34 0 0.68 0 0 Z " fill="#9F641B" transform="translate(1093,582)"/>
<path d="M0 0 C2.31 0.33 4.62 0.66 7 1 C7 1.99 7 2.98 7 4 C6.21625 4.061875 5.4325 4.12375 4.625 4.1875 C3.75875 4.455625 2.8925 4.72375 2 5 C1.71125 5.763125 1.4225 6.52625 1.125 7.3125 C-0.55338185 11.32196775 -3.17284848 12.08642424 -7 14 C-6.67 13.01 -6.34 12.02 -6 11 C-5.34 11 -4.68 11 -4 11 C-3.67 10.01 -3.34 9.02 -3 8 C-2.34 8 -1.68 8 -1 8 C-0.67 5.36 -0.34 2.72 0 0 Z " fill="#92540D" transform="translate(1140,592)"/>
<path d="M0 0 C0.66 0.33 1.32 0.66 2 1 C0.02 1.99 0.02 1.99 -2 3 C-2 3.66 -2 4.32 -2 5 C-2.58007812 5.30292969 -3.16015625 5.60585938 -3.7578125 5.91796875 C-7.58974398 7.97304751 -11.09766128 9.92462102 -14.3125 12.875 C-15.199375 13.57625 -16.08625 14.2775 -17 15 C-18.32 14.67 -19.64 14.34 -21 14 C-14.07 9.38 -7.14 4.76 0 0 Z " fill="#1B0C04" transform="translate(1117,616)"/>
<path d="M0 0 C0 0.66 0 1.32 0 2 C-0.66 2 -1.32 2 -2 2 C-2 2.66 -2 3.32 -2 4 C-4.31 4.66 -6.62 5.32 -9 6 C-9.33 7.65 -9.66 9.3 -10 11 C-10.721875 10.95875 -11.44375 10.9175 -12.1875 10.875 C-15.20729369 11.00921305 -17.26935729 11.75170619 -20 13 C-16.6811607 9.36428659 -12.99935849 6.86067641 -8.875 4.25 C-8.24207031 3.83878906 -7.60914063 3.42757812 -6.95703125 3.00390625 C-2.25656665 0 -2.25656665 0 0 0 Z " fill="#1C0D06" transform="translate(1003,693)"/>
<path d="M0 0 C1.32 0.33 2.64 0.66 4 1 C2.89039427 4.32881718 2.42884616 4.66368778 -0.37890625 6.48046875 C-1.38920898 7.14272461 -1.38920898 7.14272461 -2.41992188 7.81835938 C-3.48049805 8.49608398 -3.48049805 8.49608398 -4.5625 9.1875 C-5.27341797 9.65091797 -5.98433594 10.11433594 -6.71679688 10.59179688 C-8.47312496 11.73517825 -10.2359605 12.86855228 -12 14 C-12 11 -12 11 -11 9 C-10.01 9 -9.02 9 -8 9 C-8 8.34 -8 7.68 -8 7 C-5.53721199 4.53721199 -3.29323018 4.00228745 0 3 C0 2.01 0 1.02 0 0 Z " fill="#9D631C" transform="translate(1128,604)"/>
<path d="M0 0 C6.30839521 3.31960761 12.30784406 6.69925996 18 11 C17.67 11.99 17.34 12.98 17 14 C16.34 13.67 15.68 13.34 15 13 C15 12.34 15 11.68 15 11 C13.68 10.67 12.36 10.34 11 10 C11 9.34 11 8.68 11 8 C10.01 8 9.02 8 8 8 C8 7.34 8 6.68 8 6 C5.03 5.505 5.03 5.505 2 5 C2 4.34 2 3.68 2 3 C1.34 2.67 0.68 2.34 0 2 C0 1.34 0 0.68 0 0 Z " fill="#AD6E20" transform="translate(1069,567)"/>
<path d="M0 0 C1.41875765 0.76697796 2.83491452 1.53876778 4.25 2.3125 C5.03890625 2.74175781 5.8278125 3.17101562 6.640625 3.61328125 C8.91454767 4.94977554 10.99505799 6.28476292 13 8 C13 8.66 13 9.32 13 10 C10.525 9.01 10.525 9.01 8 8 C8 7.34 8 6.68 8 6 C6.35 6.33 4.7 6.66 3 7 C3 6.34 3 5.68 3 5 C2.34 5 1.68 5 1 5 C0.34 3.68 -0.32 2.36 -1 1 C-0.67 0.67 -0.34 0.34 0 0 Z " fill="#B77619" transform="translate(1035,545)"/>
<path d="M0 0 C3.24992446 -0.05819424 6.49971435 -0.09366116 9.75 -0.125 C10.67039062 -0.14175781 11.59078125 -0.15851563 12.5390625 -0.17578125 C13.42851562 -0.18222656 14.31796875 -0.18867188 15.234375 -0.1953125 C16.05131836 -0.20578613 16.86826172 -0.21625977 17.70996094 -0.22705078 C20.21887518 0.02170084 21.83395625 0.74299871 24 2 C21.09399739 3.25664978 19.20395416 4 16 4 C16 3.34 16 2.68 16 2 C10.72 1.67 5.44 1.34 0 1 C0 0.67 0 0.34 0 0 Z " fill="#3C5AA3" transform="translate(340,448)"/>
<path d="M0 0 C0.66 0.33 1.32 0.66 2 1 C0.2126038 2.33905267 -1.58004953 3.67109066 -3.375 5 C-4.37273438 5.7425 -5.37046875 6.485 -6.3984375 7.25 C-9 9 -9 9 -11 9 C-11.33 9.99 -11.66 10.98 -12 12 C-13.98 12.33 -15.96 12.66 -18 13 C-15.9585653 10.84925153 -13.90083747 9.1484144 -11.42578125 7.51953125 C-10.75869141 7.07802734 -10.09160156 6.63652344 -9.40429688 6.18164062 C-8.71400391 5.72982422 -8.02371094 5.27800781 -7.3125 4.8125 C-6.61060547 4.34908203 -5.90871094 3.88566406 -5.18554688 3.40820312 C-3.45910505 2.26898641 -1.72982761 1.13406902 0 0 Z " fill="#1E0D02" transform="translate(981,706)"/>
<path d="M0 0 C0.928125 0.350625 1.85625 0.70125 2.8125 1.0625 C5.9802953 2.32382628 5.9802953 2.32382628 9 1 C9.33 1.99 9.66 2.98 10 4 C11.29355827 5.37195574 12.62298702 6.71182656 14 8 C13.67 8.66 13.34 9.32 13 10 C10.8304939 8.52485505 8.66436293 7.0451561 6.5 5.5625 C5.87996094 5.14162109 5.25992187 4.72074219 4.62109375 4.28710938 C3.06289602 3.21691863 1.52921949 2.11120482 0 1 C0 0.67 0 0.34 0 0 Z " fill="#1F5A67" transform="translate(499,696)"/>
<path d="M0 0 C0.66 0.33 1.32 0.66 2 1 C1.3125 2.9375 1.3125 2.9375 0 5 C-0.7528125 5.144375 -1.505625 5.28875 -2.28125 5.4375 C-5.40124452 6.08301611 -7.21658821 7.24148725 -9.8125 9.0625 C-10.60269531 9.61035156 -11.39289062 10.15820312 -12.20703125 10.72265625 C-12.79871094 11.14417969 -13.39039063 11.56570313 -14 12 C-14.66 11.67 -15.32 11.34 -16 11 C-10.72 7.37 -5.44 3.74 0 0 Z " fill="#D59538" transform="translate(956,529)"/>
<path d="M0 0 C0.99 0.33 1.98 0.66 3 1 C-0.38772897 5.69159716 -3.78185183 10.0299782 -8 14 C-8 13.01 -8 12.02 -8 11 C-7.34 11 -6.68 11 -6 11 C-5.896875 10.360625 -5.79375 9.72125 -5.6875 9.0625 C-5.460625 8.381875 -5.23375 7.70125 -5 7 C-4.01 6.67 -3.02 6.34 -2 6 C-0.77479736 2.99152582 -0.77479736 2.99152582 0 0 Z " fill="#195152" transform="translate(653,713)"/>
<path d="M0 0 C0.99 0.33 1.98 0.66 3 1 C2.67 1.99 2.34 2.98 2 4 C2.61875 4.0825 3.2375 4.165 3.875 4.25 C6 5 6 5 7.25 7.0625 C7.4975 7.701875 7.745 8.34125 8 9 C3.89041233 7.54955729 0.56741255 5.48889248 -3 3 C-2.01 2.01 -1.02 1.02 0 0 Z " fill="#1D5C6B" transform="translate(480,680)"/>
<path d="M0 0 C2.31 0.66 4.62 1.32 7 2 C7 1.34 7 0.68 7 0 C9.90542812 1.3024333 11.8092961 2.70886268 14 5 C8.72684667 4.5547115 3.98229776 3.91626837 -1 2 C-0.67 1.34 -0.34 0.68 0 0 Z " fill="#1A575D" transform="translate(569,740)"/>
<path d="M0 0 C1.09658936 3.28976808 0.79953138 4.71303767 0 8 C-0.99 8.33 -1.98 8.66 -3 9 C-3 9.66 -3 10.32 -3 11 C-3.99 10.67 -4.98 10.34 -6 10 C-4.02 6.7 -2.04 3.4 0 0 Z " fill="#E19514" transform="translate(823,625)"/>
<path d="M0 0 C6.26418531 1.48362284 10.91513505 5.24162156 16 9 C11.31066255 9 6.84393165 7.73364866 3.3671875 4.46484375 C2.17885622 3.02866052 1.08027236 1.51913301 0 0 Z " fill="#37579A" transform="translate(400,469)"/>
<path d="M0 0 C0.33 0.66 0.66 1.32 1 2 C1.99 2.33 2.98 2.66 4 3 C3.0925 3.28875 2.185 3.5775 1.25 3.875 C-1.88351118 4.88080213 -1.88351118 4.88080213 -4.25 6.125 C-6 7 -6 7 -8 7 C-8 6.34 -8 5.68 -8 5 C-6.25 3.7109375 -6.25 3.7109375 -4 2.375 C-3.2575 1.92898438 -2.515 1.48296875 -1.75 1.0234375 C-1.1725 0.68570312 -0.595 0.34796875 0 0 Z " fill="#5E3F81" transform="translate(540,312)"/>
<path d="M0 0 C0.66 0.33 1.32 0.66 2 1 C0.046875 3.24609375 0.046875 3.24609375 -1.90625 5.4921875 C-3.19572458 6.95936421 -3.19572458 6.95936421 -3 9 C-4.65 9.66 -6.3 10.32 -8 11 C-7.67 9.68 -7.34 8.36 -7 7 C-6.34 7 -5.68 7 -5 7 C-4.9175 6.401875 -4.835 5.80375 -4.75 5.1875 C-3.79544128 2.4033704 -2.42867729 1.56688858 0 0 Z " fill="#E09D2C" transform="translate(840,606)"/>
<path d="M0 0 C3.37503669 1.1858237 5.64722731 2.27573689 8 5 C7.360625 5.12375 6.72125 5.2475 6.0625 5.375 C5.0415625 5.684375 5.0415625 5.684375 4 6 C3.67 6.66 3.34 7.32 3 8 C2.34 8 1.68 8 1 8 C1.020625 7.236875 1.04125 6.47375 1.0625 5.6875 C1.12942841 2.89814214 1.12942841 2.89814214 0 0 Z " fill="#335799" transform="translate(416,479)"/>
<path d="M0 0 C2.475 0.495 2.475 0.495 5 1 C5.33 1.99 5.66 2.98 6 4 C6.66 4.33 7.32 4.66 8 5 C8 4.34 8 3.68 8 3 C8.66 3 9.32 3 10 3 C10.33 4.98 10.66 6.96 11 9 C5.70841026 7.59928507 3.22521956 4.14512755 0 0 Z " fill="#DE972B" transform="translate(832,725)"/>
<path d="M0 0 C0.99 0.33 1.98 0.66 3 1 C2 4 2 4 -1.4375 5.75 C-2.613125 6.1625 -3.78875 6.575 -5 7 C-5.66 6.67 -6.32 6.34 -7 6 C-5.62209707 3.24419414 -3.62850007 2.51138754 -1 1 C-0.67 0.67 -0.34 0.34 0 0 Z " fill="#A96611" transform="translate(1111,616)"/>
<path d="M0 0 C0.66 0.33 1.32 0.66 2 1 C1.360625 1.2475 0.72125 1.495 0.0625 1.75 C-2.18741541 2.81562433 -2.18741541 2.81562433 -2.75 5.125 C-2.8325 5.74375 -2.915 6.3625 -3 7 C-7.75 8.125 -7.75 8.125 -10 7 C-6.7 4.69 -3.4 2.38 0 0 Z " fill="#E1A238" transform="translate(858,594)"/>
<path d="M0 0 C0 0.66 0 1.32 0 2 C-3.04386724 2.08226668 -5.07175348 1.97608217 -8 1 C-8.99 1.99 -9.98 2.98 -11 4 C-11.66 3.34 -12.32 2.68 -13 2 C-9.16001987 -2.17389144 -5.07563763 -0.9001665 0 0 Z " fill="#DF9622" transform="translate(926,556)"/>
<path d="M0 0 C2.97 0.99 5.94 1.98 9 3 C9 3.66 9 4.32 9 5 C9.639375 5.103125 10.27875 5.20625 10.9375 5.3125 C11.618125 5.539375 12.29875 5.76625 13 6 C13.33 6.99 13.66 7.98 14 9 C10.40241608 7.67726488 7.36262865 6.0805802 4.1875 3.9375 C3.39730469 3.41027344 2.60710938 2.88304687 1.79296875 2.33984375 C1.20128906 1.89769531 0.60960937 1.45554687 0 1 C0 0.67 0 0.34 0 0 Z " fill="#1F260E" transform="translate(1016,532)"/>
<path d="M0 0 C0.66 0.33 1.32 0.66 2 1 C-0.90507321 3.42089434 -3.63147043 5.31573522 -7 7 C-7.33 7.66 -7.66 8.32 -8 9 C-9.32 8.67 -10.64 8.34 -12 8 C-10.37615858 6.85252535 -8.75088944 5.7070709 -7.125 4.5625 C-6.22007813 3.92441406 -5.31515625 3.28632812 -4.3828125 2.62890625 C-2 1 -2 1 0 0 Z " fill="#130C07" transform="translate(1163,586)"/>
<path d="M0 0 C2.475 0.495 2.475 0.495 5 1 C5 1.66 5 2.32 5 3 C6.670625 3.37125 6.670625 3.37125 8.375 3.75 C12 5 12 5 13.4375 7.125 C13.7159375 8.053125 13.7159375 8.053125 14 9 C10.40241608 7.67726488 7.36262865 6.0805802 4.1875 3.9375 C3.39730469 3.41027344 2.60710937 2.88304687 1.79296875 2.33984375 C1.20128906 1.89769531 0.60960937 1.45554687 0 1 C0 0.67 0 0.34 0 0 Z " fill="#1C230E" transform="translate(1072,568)"/>
<path d="M0 0 C-3.3 2.31 -6.6 4.62 -10 7 C-10 6.01 -10 5.02 -10 4 C-9.34 4 -8.68 4 -8 4 C-7.896875 3.360625 -7.79375 2.72125 -7.6875 2.0625 C-7.460625 1.381875 -7.23375 0.70125 -7 0 C-4 -1 -4 -1 0 0 Z " fill="#383061" transform="translate(504,512)"/>
<path d="M0 0 C0.99 0.66 1.98 1.32 3 2 C-4.28571429 6.57142857 -4.28571429 6.57142857 -9 6 C-8.67 5.01 -8.34 4.02 -8 3 C-5.36 2.67 -2.72 2.34 0 2 C0 1.34 0 0.68 0 0 Z " fill="#0C1C15" transform="translate(1164,581)"/>
<path d="M0 0 C2.0625 1.875 2.0625 1.875 4 5 C4.0571754 8.40453547 3.59785505 11.65331142 3 15 C1.08697693 11.73386305 0.64325339 9.00554752 0.375 5.25 C0.30023437 4.26515625 0.22546875 3.2803125 0.1484375 2.265625 C0.09945312 1.51796875 0.05046875 0.7703125 0 0 Z " fill="#DD940F" transform="translate(808,660)"/>
<path d="M0 0 C0.66 0.33 1.32 0.66 2 1 C-3.30311615 6.74504249 -3.30311615 6.74504249 -7 7 C-7.66 6.67 -8.32 6.34 -9 6 C-6.03 4.02 -3.06 2.04 0 0 Z " fill="#160D07" transform="translate(1146,597)"/>
<path d="M0 0 C2.86867231 1.38264837 5.56024032 2.92148553 8.25 4.625 C8.95640625 5.07101562 9.6628125 5.51703125 10.390625 5.9765625 C10.92171875 6.31429687 11.4528125 6.65203125 12 7 C11.01 7.495 11.01 7.495 10 8 C8.0546875 7.22265625 8.0546875 7.22265625 5.875 6.0625 C5.15054687 5.68222656 4.42609375 5.30195312 3.6796875 4.91015625 C3.12539062 4.60980469 2.57109375 4.30945313 2 4 C2 3.34 2 2.68 2 2 C1.34 2 0.68 2 0 2 C0 1.34 0 0.68 0 0 Z " fill="#B87E28" transform="translate(1022,537)"/>
<path d="M0 0 C3.63 2.31 7.26 4.62 11 7 C10.01 7.495 10.01 7.495 9 8 C7.08984375 7.36328125 7.08984375 7.36328125 4.9375 6.3125 C4.22464844 5.97863281 3.51179687 5.64476562 2.77734375 5.30078125 C1 4 1 4 0 0 Z " fill="#BC7E25" transform="translate(1001,523)"/>
<path d="M0 0 C0.66 0 1.32 0 2 0 C1.01 3.96 0.02 7.92 -1 12 C-1.66 11.67 -2.32 11.34 -3 11 C-2.32829194 7.1936543 -1.27253436 3.64793184 0 0 Z " fill="#175255" transform="translate(663,690)"/>
<path d="M0 0 C2.31 0.33 4.62 0.66 7 1 C7.33 1.99 7.66 2.98 8 4 C9.49985609 5.66710346 9.49985609 5.66710346 11 7 C6.89188572 5.55007731 3.53144334 3.54592427 0 1 C0 0.67 0 0.34 0 0 Z " fill="#292A68" transform="translate(445,496)"/>
<path d="M0 0 C0.33 0.66 0.66 1.32 1 2 C-2.222107 5.8665284 -5.14922412 6.88059018 -10 8 C-6.97727468 4.74475735 -3.74281699 2.38179263 0 0 Z " fill="#32336F" transform="translate(345,440)"/>
<path d="M0 0 C-1.22792393 3.68377179 -2.82911332 4.29785789 -6.14453125 6.08203125 C-8.38401412 7.18998593 -10.65211667 8.14622424 -13 9 C-4.5 0 -4.5 0 0 0 Z " fill="#4E447C" transform="translate(432,384)"/>
<path d="M0 0 C0 3.29052817 -0.14241486 4.33476915 -2 7 C-4.26278773 8.53117045 -6.56587258 9.73785986 -9 11 C-7.59155282 7.78475695 -5.89655214 5.67816132 -3.375 3.25 C-2.74335937 2.63640625 -2.11171875 2.0228125 -1.4609375 1.390625 C-0.73777344 0.70226562 -0.73777344 0.70226562 0 0 Z " fill="#0E463A" transform="translate(833,305)"/>
<path d="M0 0 C1.4800841 0.11362262 2.95910074 0.24122908 4.4375 0.375 C5.26121094 0.44460938 6.08492187 0.51421875 6.93359375 0.5859375 C7.95646484 0.79089844 7.95646484 0.79089844 9 1 C9.33 1.66 9.66 2.32 10 3 C4.25 4.125 4.25 4.125 2 3 C2 2.34 2 1.68 2 1 C1.34 0.67 0.68 0.34 0 0 Z " fill="#644084" transform="translate(614,288)"/>
<path d="M0 0 C-1.09758507 0.84198307 -2.20335317 1.67330671 -3.3125 2.5 C-3.92738281 2.9640625 -4.54226563 3.428125 -5.17578125 3.90625 C-7 5 -7 5 -10 5 C-9 2 -9 2 -6.125 0.25 C-3 -1 -3 -1 0 0 Z " fill="#B7741A" transform="translate(1091,634)"/>
<path d="M0 0 C2.64 0.33 5.28 0.66 8 1 C8.33 2.65 8.66 4.3 9 6 C5.06326356 4.68775452 2.77280706 3.08089673 0 0 Z " fill="#1A2615" transform="translate(1052,555)"/>
<path d="M0 0 C2.02045442 0.60183749 4.02111039 1.27306096 6 2 C6.33 2.66 6.66 3.32 7 4 C3.37 4 -0.26 4 -4 4 C-2.68 2.68 -1.36 1.36 0 0 Z " fill="#C38527" transform="translate(982,512)"/>
<path d="M0 0 C0.99 0.33 1.98 0.66 3 1 C3 1.66 3 2.32 3 3 C0.69 4.32 -1.62 5.64 -4 7 C-4.66 6.34 -5.32 5.68 -6 5 C-5.38125 4.9175 -4.7625 4.835 -4.125 4.75 C-1.81562433 4.18741541 -1.81562433 4.18741541 -0.75 1.9375 C-0.5025 1.298125 -0.255 0.65875 0 0 Z " fill="#44346B" transform="translate(546,480)"/>
<path d="M0 0 C0.53625 0.2475 1.0725 0.495 1.625 0.75 C-1.0348561 4.19216672 -4.27788286 4.74504674 -8.375 5.75 C-8.375 5.09 -8.375 4.43 -8.375 3.75 C-3.23290173 -0.34030544 -3.23290173 -0.34030544 0 0 Z " fill="#443C7D" transform="translate(396.375,408.25)"/>
<path d="M0 0 C0.33 0.66 0.66 1.32 1 2 C0.195625 2.61875 -0.60875 3.2375 -1.4375 3.875 C-4.03874519 5.74164041 -4.03874519 5.74164041 -5 8 C-6.32 7.34 -7.64 6.68 -9 6 C-6.03 4.02 -3.06 2.04 0 0 Z " fill="#DFA43C" transform="translate(869,587)"/>
<path d="M0 0 C0.66 0.33 1.32 0.66 2 1 C-0.53036888 4.79555331 -2.78074764 5.4455386 -7 7 C-7.99 7 -8.98 7 -10 7 C-6.7 4.69 -3.4 2.38 0 0 Z " fill="#DAA242" transform="translate(896,569)"/>
<path d="M0 0 C2.475 0.495 2.475 0.495 5 1 C5 1.66 5 2.32 5 3 C5.78375 3.28875 6.5675 3.5775 7.375 3.875 C10 5 10 5 12 7 C8.38862487 7 7.25267809 6.07469918 4.3125 4.0625 C3.50425781 3.51722656 2.69601562 2.97195313 1.86328125 2.41015625 C1.24839844 1.94480469 0.63351562 1.47945312 0 1 C0 0.67 0 0.34 0 0 Z " fill="#2B2B61" transform="translate(476,516)"/>
<path d="M0 0 C4.31392226 0.4793247 6.16569547 1.7457985 9 5 C8.01 5.495 8.01 5.495 7 6 C1.125 2.25 1.125 2.25 0 0 Z " fill="#262E6B" transform="translate(456,503)"/>
<path d="M0 0 C0 0.99 0 1.98 0 3 C1.65 3 3.3 3 5 3 C5.33 4.32 5.66 5.64 6 7 C2.00499382 5.6302836 -0.80009492 3.74277578 -4 1 C-2 0 -2 0 0 0 Z " fill="#2D3170" transform="translate(389,457)"/>
<path d="M0 0 C2.97 0.495 2.97 0.495 6 1 C6 1.99 6 2.98 6 4 C7.32 4.66 8.64 5.32 10 6 C6.62972148 6 5.93297304 5.50175992 3.3125 3.5625 C2.68988281 3.11003906 2.06726563 2.65757812 1.42578125 2.19140625 C0.95527344 1.79824219 0.48476563 1.40507813 0 1 C0 0.67 0 0.34 0 0 Z " fill="#365B8F" transform="translate(333,588)"/>
<path d="M0 0 C0.33 0.66 0.66 1.32 1 2 C2.65 1.67 4.3 1.34 6 1 C6.33 2.65 6.66 4.3 7 6 C3.62496331 4.8141763 1.35277269 3.72426311 -1 1 C-0.67 0.67 -0.34 0.34 0 0 Z " fill="#143021" transform="translate(981,508)"/>
<path d="M0 0 C0.66 0 1.32 0 2 0 C1.50168276 3.68754757 0.89932357 5.60490662 -2 8 C-2.125 5.125 -2.125 5.125 -2 2 C-1.34 1.34 -0.68 0.68 0 0 Z " fill="#125153" transform="translate(658,704)"/>
<path d="M0 0 C0.99 0 1.98 0 3 0 C3.33 1.65 3.66 3.3 4 5 C2.02 5.99 2.02 5.99 0 7 C-0.93423645 3.98968256 -1.04449911 3.13349732 0 0 Z " fill="#E1931E" transform="translate(812,648)"/>
<path d="M0 0 C4.10958767 1.45044271 7.43258745 3.51110752 11 6 C10.01 6.495 10.01 6.495 9 7 C6.8359375 6.00390625 6.8359375 6.00390625 4.375 4.5625 C3.55773437 4.08941406 2.74046875 3.61632812 1.8984375 3.12890625 C1.27195312 2.75636719 0.64546875 2.38382813 0 2 C0 1.34 0 0.68 0 0 Z " fill="#030B1C" transform="translate(339,594)"/>
<path d="M0 0 C0.66 0.33 1.32 0.66 2 1 C0.3125 3.5 0.3125 3.5 -2 6 C-4.75 6.3125 -4.75 6.3125 -7 6 C-4.74259377 3.66475218 -2.7194239 1.81294927 0 0 Z " fill="#DB9B33" transform="translate(911,559)"/>
<path d="M0 0 C3.95820859 0.56545837 6.6659053 1.80902348 10 4 C9.67 4.66 9.34 5.32 9 6 C8.34 6 7.68 6 7 6 C6.67 5.34 6.34 4.68 6 4 C4.02111039 3.27306096 2.02045442 2.60183749 0 2 C0 1.34 0 0.68 0 0 Z " fill="#3B589D" transform="translate(373,453)"/>
<path d="M0 0 C0.99 0.33 1.98 0.66 3 1 C1.02 1.99 1.02 1.99 -1 3 C-1 3.66 -1 4.32 -1 5 C-2.98 5.33 -4.96 5.66 -7 6 C-6.21625 5.38125 -5.4325 4.7625 -4.625 4.125 C-2.03162353 2.10141339 -2.03162353 2.10141339 0 0 Z " fill="#110C20" transform="translate(644,419)"/>
<path d="M0 0 C-0.66 1.32 -1.32 2.64 -2 4 C-2.66 4 -3.32 4 -4 4 C-4 3.34 -4 2.68 -4 2 C-5.98 2.66 -7.96 3.32 -10 4 C-6.66064924 0.50886057 -4.84725717 -0.1275594 0 0 Z " fill="#634887" transform="translate(577,292)"/>
<path d="M0 0 C1.32 0.66 2.64 1.32 4 2 C2.02 3.32 0.04 4.64 -2 6 C-2.66 5.67 -3.32 5.34 -4 5 C-4 4.34 -4 3.68 -4 3 C-3.34 3 -2.68 3 -2 3 C-1.34 2.01 -0.68 1.02 0 0 Z " fill="#D98F25" transform="translate(951,722)"/>
<path d="M0 0 C2.9375 1.25 2.9375 1.25 6 3 C6.875 5.1875 6.875 5.1875 7 7 C3.535 5.02 3.535 5.02 0 3 C0 2.01 0 1.02 0 0 Z " fill="#195B67" transform="translate(514,704)"/>
<path d="M0 0 C0.66 0.33 1.32 0.66 2 1 C-0.75 3.0625 -0.75 3.0625 -4 5 C-6.203125 4.62109375 -6.203125 4.62109375 -8 4 C-6.71349294 3.30289269 -5.42059335 2.61757124 -4.125 1.9375 C-3.40570312 1.55464844 -2.68640625 1.17179688 -1.9453125 0.77734375 C-1.30335937 0.52082031 -0.66140625 0.26429688 0 0 Z " fill="#AC6D1D" transform="translate(1106,622)"/>
<path d="M0 0 C2.64 1.65 5.28 3.3 8 5 C4.89448334 5 3.64738916 4.4606285 1 3 C1 3.66 1 4.32 1 5 C0.34 4.67 -0.32 4.34 -1 4 C-0.67 2.68 -0.34 1.36 0 0 Z " fill="#B27221" transform="translate(1057,559)"/>
<path d="M0 0 C0.66 0.99 1.32 1.98 2 3 C1.06810009 6.10633303 -0.19193628 8.28790442 -2 11 C-1.85892253 9.54119891 -1.71197585 8.08296449 -1.5625 6.625 C-1.48128906 5.81289063 -1.40007812 5.00078125 -1.31640625 4.1640625 C-1 2 -1 2 0 0 Z " fill="#3B5C95" transform="translate(289,497)"/>
<path d="M0 0 C0.33 1.32 0.66 2.64 1 4 C-2.80504787 5.79682816 -3.70600835 6.07349791 -8 5 C-4.04 2.525 -4.04 2.525 0 0 Z " fill="#473E76" transform="translate(406,400)"/>
<path d="M0 0 C0.66 0.33 1.32 0.66 2 1 C1.34 2.32 0.68 3.64 0 5 C-1.65 5 -3.3 5 -5 5 C-3.35 3.35 -1.7 1.7 0 0 Z " fill="#514081" transform="translate(438,379)"/>
<path d="M0 0 C1.98 0 3.96 0 6 0 C6.66 1.65 7.32 3.3 8 5 C5.36 3.68 2.72 2.36 0 1 C0 0.67 0 0.34 0 0 Z " fill="#1B5766" transform="translate(560,736)"/>
<path d="M0 0 C2.9375 0.8125 2.9375 0.8125 6 2 C6.33 2.99 6.66 3.98 7 5 C4 5 4 5 1.8125 3.0625 C0 1 0 1 0 0 Z " fill="#165963" transform="translate(544,724)"/>
<path d="M0 0 C0.66 0.33 1.32 0.66 2 1 C-0.25 3.5625 -0.25 3.5625 -3 6 C-4.32 5.67 -5.64 5.34 -7 5 C-4.69 3.35 -2.38 1.7 0 0 Z " fill="#221107" transform="translate(1022,679)"/>
<path d="M0 0 C0.66 0.33 1.32 0.66 2 1 C1.34 2.65 0.68 4.3 0 6 C-0.33 5.34 -0.66 4.68 -1 4 C-1.99 4.33 -2.98 4.66 -4 5 C-2.25 1.125 -2.25 1.125 0 0 Z " fill="#5A4384" transform="translate(458,366)"/>
<path d="M0 0 C-1 3 -1 3 -4 5 C-4.99 5 -5.98 5 -7 5 C-6 2 -6 2 -4.0625 0.8125 C-2 0 -2 0 0 0 Z " fill="#5D4482" transform="translate(512,332)"/>
<path d="M0 0 C1.32 0.33 2.64 0.66 4 1 C1.03 3.475 1.03 3.475 -2 6 C-2 3 -2 3 0 0 Z " fill="#135050" transform="translate(640,727)"/>
<path d="M0 0 C0.99 0.33 1.98 0.66 3 1 C2.60196439 3.88575819 2.20990931 4.82189513 -0.0625 6.75 C-0.701875 7.1625 -1.34125 7.575 -2 8 C-1.34 5.36 -0.68 2.72 0 0 Z " fill="#0A1D1E" transform="translate(1196,548)"/>
<path d="M0 0 C2.02045442 0.60183749 4.02111039 1.27306096 6 2 C6.33 2.66 6.66 3.32 7 4 C3.25 5.125 3.25 5.125 1 4 C0.375 1.9375 0.375 1.9375 0 0 Z " fill="#2E5993" transform="translate(459,507)"/>
<path d="M0 0 C0 0.99 0 1.98 0 3 C-2.1385485 5.1385485 -3.13275314 5.42655063 -6 6 C-4.75453595 2.26360784 -3.36595047 1.81243487 0 0 Z " fill="#35346F" transform="translate(353,435)"/>
<path d="M0 0 C0.66 0.66 1.32 1.32 2 2 C1.67 2.99 1.34 3.98 1 5 C-1.97 4.505 -1.97 4.505 -5 4 C-3.35 2.68 -1.7 1.36 0 0 Z " fill="#38366F" transform="translate(371,423)"/>
<path d="M0 0 C0.99 0.66 1.98 1.32 3 2 C0.69 3.32 -1.62 4.64 -4 6 C-4 5.01 -4 4.02 -4 3 C-3.34 3 -2.68 3 -2 3 C-2 2.34 -2 1.68 -2 1 C-1.34 0.67 -0.68 0.34 0 0 Z " fill="#100C1F" transform="translate(540,309)"/>
</svg>
